/* XPM */
static char *result[] = {
/* columns rows colors chars-per-pixel */
"50 50 186 2 ",
"   c #0E110D",
".  c #10110F",
"X  c #190E1C",
"o  c #111111",
"O  c #171219",
"+  c #1B131E",
"@  c #1C0E20",
"#  c #1E1322",
"$  c #220F27",
"%  c #211326",
"&  c #25152B",
"*  c #2D0F37",
"=  c #2E0A39",
"-  c #2D1236",
";  c #2E1935",
":  c #2E1038",
">  c #31113B",
",  c #380A46",
"<  c #3C0C4B",
"1  c #371342",
"2  c #391345",
"3  c #3C1848",
"4  c #3E114C",
"5  c #440D54",
"6  c #4A0C5D",
"7  c #470D59",
"8  c #4D165E",
"9  c #4C185D",
"0  c #4D0E60",
"q  c #510F66",
"w  c #560D6D",
"e  c #580B6F",
"r  c #56066D",
"t  c #4F1262",
"y  c #590771",
"u  c #5C0B75",
"i  c #5E1175",
"p  c #601177",
"a  c #660882",
"s  c #680984",
"d  c #6D038B",
"f  c #6D0C8A",
"g  c #70078F",
"h  c #700C8D",
"j  c #740394",
"k  c #77039A",
"l  c #7A059D",
"z  c #760A96",
"x  c #7E169C",
"c  c #7C01A3",
"v  c #7E00A9",
"b  c #832D9C",
"n  c #8103A6",
"m  c #820AA6",
"M  c #8502AC",
"N  c #8802AE",
"B  c #8609AB",
"V  c #890BAF",
"C  c #8411A9",
"Z  c #8B01B4",
"A  c #8C0BB2",
"S  c #8F00B9",
"D  c #8F0AB8",
"F  c #9302BD",
"G  c #920BBB",
"H  c #900DB6",
"J  c #8E13B5",
"K  c #9311BB",
"L  c #9418B9",
"P  c #911CB6",
"I  c #8827A4",
"U  c #8526A1",
"Y  c #9137AE",
"T  c #9138AC",
"R  c #9324B4",
"E  c #9521BA",
"W  c #9928BD",
"Q  c #9726BB",
"!  c #9738B7",
"~  c #9937B9",
"^  c #995CAB",
"/  c #9E4FB6",
"(  c #9E44BA",
")  c #A150BC",
"_  c #8F00C0",
"`  c #9500C1",
"'  c #9901C4",
"]  c #960BC3",
"[  c #9810C1",
"{  c #9B1AC3",
"}  c #9B01D0",
"|  c #A100DC",
" . c #A51BD2",
".. c #A719D5",
"X. c #9D23C5",
"o. c #9B2CC0",
"O. c #A126CA",
"+. c #A034C4",
"@. c #B129DF",
"#. c #AF3BD6",
"$. c #AC34D4",
"%. c #AC09E1",
"&. c #AE01E8",
"*. c #B21DE3",
"=. c #BC0CF5",
"-. c #B800F8",
";. c #BF14F8",
":. c #BD1FF1",
">. c #BD2EED",
",. c #BC39E7",
"<. c #BC34EA",
"1. c #BD21F0",
"2. c #C010FA",
"3. c #C31CFA",
"4. c #C221F7",
"5. c #C521FB",
"6. c #C42AF7",
"7. c #C730F8",
"8. c #CC3BFC",
"9. c #CA31FC",
"0. c #A843C9",
"q. c #A349C0",
"w. c #AE50CC",
"e. c #AC5DC6",
"r. c #BB55DC",
"t. c #AC66C3",
"y. c #B465CE",
"u. c #BD66DA",
"i. c #C64CEE",
"p. c #CF51F9",
"a. c #CD59F3",
"s. c #D45CFC",
"d. c #D053F8",
"f. c #C76FE4",
"g. c #CD6CED",
"h. c #CC72EA",
"j. c #D174EF",
"k. c #D563FA",
"l. c #D76EFA",
"z. c #D96EFB",
"x. c #D863FE",
"c. c #D772F8",
"v. c #DC72FE",
"b. c #DD7CFD",
"n. c #D77CF5",
"m. c #BB99C6",
"M. c #BAA3C2",
"N. c #C68ED8",
"B. c #C181D6",
"V. c #CD99DE",
"C. c #C8B3CF",
"Z. c #CC86E3",
"A. c #CD90E2",
"S. c #D799EB",
"D. c #DD82FB",
"F. c #DF8AFA",
"G. c #E186FF",
"H. c #E18BFD",
"J. c #E393FC",
"K. c #E49AFC",
"L. c #D7B6E2",
"P. c #DEB5EB",
"I. c #E0BCED",
"U. c #E5A2FB",
"Y. c #E9A1FF",
"T. c #EBACFE",
"R. c #ECB3FD",
"E. c #EDBBFD",
"W. c #E5BAF3",
"Q. c #F0B5FF",
"!. c #DDC6E5",
"~. c #E6D1ED",
"^. c #E8C8F2",
"/. c #EEC3FD",
"(. c #EACBF5",
"). c #F1C6FF",
"_. c #F1CBFE",
"`. c #F3D1FE",
"'. c #F6DBFE",
"]. c #F9DBFF",
"[. c #F7E1FE",
"{. c #F9E5FF",
"}. c #FAEBFE",
"|. c #F6F6F6",
" X c #FCF4FF",
".X c #FFFFFF",
/* pixels */
".X.X.X.X.X.X.X.X.X.X.X.X.X.X.X.X.X.X.X.X.X.X.X.X.X.X.X.X.X.X.X.X.X.X.X.X.X.X.X.X.X.X.X.X.X.X.X.X.X|.",
".X.X.X.X.X.X.X.X.X.X.X.X.X.X.X.X.X.X.X.X.X.X.X.X.X.X.X.X.X.X.X.X.X.X.X.X.X.X.X.X.X.X.X.X.X.X.X.X.X.X",
".X.X.X.X.X.X.X.X.X.X.X.X.X.X.X.X.X.X.X.X.X.X.X.X.X.X.X.X.X.X.X.X.X.X.X.X.X.X.X.X.X.X.X.X.X.X.X.X.X.X",
".X.X.X.X.X.X.X.X.X.X.X.X.X.X.X.X.X.X.X.X.X.X.X.X.X.X.X.X.X.X.X.X.X.X.X.X.X.X.X.X.X.X.X.X.X.X.X.X.X.X",
".X.X.X.X.X.X.X.X.X.X.X.X.X.X.X.X.X.X.X.X}.'..X.X.X.X.X.X.X.X.X.X.X.X.X.X.X.X.X.X.X.X.X.X.X.X.X.X.X.X",
".X.X.X.X.X.X.X.X.X.X.X.X.X.X.X.X.X.X.X.X{.J..X.X.X.X.X.X.X.X.X.X.X.X.X.X.X.X.X.X.X.X.X.X.X.X.X.X.X.X",
".X.X.X.X.X.X.X.X.X.X.X.X.X.X.X.X.X.X.XJ.D..X.X.X.XT._..X.X.XJ. X.X.X.X.X.X.X.X.X.X.X.X.X.X.X.X.X.X.X",
".X.X.X.X.X.X.X.X.X.X.X.X.X.X X.X.X X.X8.F..XF.`.(.l.`.v..XK.K..X X.X.X.X.X.X.X.X.X.X.X.X.X.X.X.X.X.X",
".X.X.X.X.X.X.X.X.X.X.X.X.XE.l.l.b.J.c.&.>.1.] C Y ^ ..-.g.^.'..X.X.X.X.X.X.X.X.X.X.X.X.X.X.X.X.X.X.X",
".X.X.X.X.X.X.X.X.X.X.X.X.XD.E.T.4.f.] c [ G n Z F N n { A B  .S.K.{.E..X.X.X.X.X.X.X.X.X.X.X.X.X.X.X",
".X.X.X.X.X.X.X.X.X.X.X.X.XH.z.Z.X.n A F ' F n l j l Z F ' Z A N } i.G.k./..X.X.X.X.X.X.X.X.X.X.X.X.X",
".X.X.X.X.X.X.X.X.X.X.X.X'.i.` c Z F F l q 5 4 % X * 5 5 u Z F F B N #.6.'..X.X.X.X.X.X.X.X.X.X.X.X.X",
".X.X.X.X.X.X.X.X.X.X'.'.i.[ J F ' c 7 - o   o o     o   # 1 u N ' Z J  .T.`..X.X.X.X.X.X.X.X.X.X.X.X",
".X.X.X.X.X.X.X.X XU.).W.e.D F F f 4 O   o o o o o o o o     % 8 c ` F K y.K.).E..X.X.X.X.X.X.X.X.X.X",
".X.X.X.X.X.X.X.X.XE.|.m.A ` Z r % + . o o o o o o o o o o o o + : d F G Z N.K.k..X.X.X.X.X.X.X.X.X.X",
".X.X.X.X.X.X.X.X.X].<.c F F f %   o o o o o o o o o o o o o o .   2 n ` Z M a. X.X.X.X.X.X.X.X.X.X.X",
".X.X.X.X.X.X.X.X.X:.G [ ' k 3 + . o o o o o o o o . . o o o o o o & t Z ` G y..X.X.X.X.X.X.X.X.X.X.X",
".X.X.X.X.X.X.XE._.A.K F F 6 O   o o o o o o o o o o o o o o o o o . & a ' Z +.(..X.X.X.X.X.X.X.X.X.X",
".X.X.X.X.X.X.X_.k.! H F l >   o o o o o o o o o o o o o o o o o o o o 0 Z ' V O.]..X.X.X.X.X.X.X.X.X",
".X.X.X.X.X.X_./.s.` S ' q O o o o o o o . o o o o o o o . o o o o o o # z ' R V.T.s. X.X.X.X.X.X.X.X",
".X.X.X.X.X.X[.H.h.E F F 6 . o o o o o o o o o o o o o o o o o o o o . + d ' F 0.=.3..X.X.X.X.X.X.X.X",
".X.X.X.X.X.X.X8.X.x ` c * . o o o o . o o o o o o . o o o o o o o o o o 6 F Z b *.J..X.X.X.X.X.X.X.X",
".X.X.X.X.X X XR.G N ' j X   o o o o o o o o o o o o o o o o o o o o o   , Z F c Z.Y..X.X.X.X.X.X.X.X",
".X.X.X.X.X{.J.{.M.P ' j # . o o o o o o o o . o o o o o o . o o . o o . , Z ' v L.`..X.X.X.X.X.X.X.X",
".X.X.X.X.X.X[.v.t.C ` k X . o o o o o o o o   o o o o o . o o o o o o   < S F I !.s././..X.X.X.X.X.X",
".X.X.X.X.X.X{.].y.k ` M < o o o o o o o o o o o o o o o o o o o o o o O y F Z b ~.T.k.[..X.X.X.X.X.X",
".X.X.X.X.X X{.E.U.w.F ` 6   o o o   o o o o o o . o o o o o o . o o . O g ' F u.v.[.}..X.X.X.X.X.X.X",
".X.X.X.X.X{.F..X.X~ Z ' u # . o o o o o o o o o o o o o o o o o o o o - l ' N } Q..X.X.X.X.X.X.X.X.X",
".X.X.X.X.X.X.X.XJ.L [ F N 2   o o o o o o o o o o o o o o o o o o . o w F F ( $.T..X.X.X.X.X.X.X.X.X",
".X.X.X.X.X.X.X.X`.P.P ` F r % o o o o o o o o o o o o o o . o o . O > j ' D X.D. X.X.X.X.X.X.X.X.X.X",
".X.X.X.X.X.X.X.X.X'.C.L ` N 8 # o o o o o o o o o o o o o o o o . ; p F F F r..X.X.X.X.X.X.X.X.X.X.X",
".X.X.X.X.X.X.X.X.XD.S.^ Z ' k =     o o o o o   o o o o o o o   O 7 Z F B ! p..X.X.X.X.X.X.X.X.X.X.X",
".X.X.X.X.X.X.X.X.X XE.B.Z F F d 1 & . o o o o o o o o o o o O ; 5 n F F Q P.s..X.X.X.X.X.X.X.X.X.X.X",
".X.X.X.X.X.X.X.X.X.X.XJ. .Q F ` c 8 % o o . o o o o . o o o - i Z ` F W %.3.'..X.X.X.X.X.X.X.X.X.X.X",
".X.X.X.X.X.X.X.X.X.X.X/.=.} A N ` Z a 8 # O +     O + O - w j ` S m ) | 3.k..X.X.X.X.X.X.X.X.X.X.X.X",
".X.X.X.X.X.X.X.X.X.X.XR.z.J.u.M V Z ' Z h a w , * 5 u s k F ` Z T ~ 7.5.]..X.X.X.X.X.X.X.X.X.X.X.X.X",
".X.X.X.X.X.X.X.X.X.X.X.X.X[.5.n.r./ N N ' G N Z Z N Z ` ` n Z G <.7.x.l..X X.X.X.X.X.X.X.X.X.X.X.X.X",
".X.X.X.X.X.X.X.X.X.X.X.X{.D.F.H.3.=...Q q.c c M Z c c N _ E <.k.}.{..X X.X.X.X.X.X.X.X.X.X.X.X.X.X.X",
".X.X.X.X.X.X.X.X.X.X.X.X.X.X.XK.p.U.T./.U.9.| ` ` 0.j.;.k.`..X.X.X.X.X.X.X.X.X.X.X.X.X.X.X.X.X.X.X.X",
".X.X.X.X.X.X.X.X.X.X.X.X.X.X.X.X.X.X.X.XT.].J.H.-.J.R.T._.E.K.}..X.X.X.X.X.X.X.X.X.X.X.X.X.X.X.X.X.X",
".X.X.X.X.X.X.X.X.X.X.X.X.X.X.X.X.X.X X.X}.8._..X_.{._..XJ.;.R..X.X.X.X.X.X.X.X.X.X.X.X.X.X.X.X.X.X.X",
".X.X.X.X.X.X.X.X.X.X.X.X.X.X.X.X.X.X.X.X.X[.}..X.X.X.X.X.X}..X.X.X.X.X.X.X.X.X.X.X.X.X.X.X.X.X.X.X.X",
".X.X.X.X.X.X.X.X.X.X.X.X.X.X.X.X.X.X.X.X.X.X.X.X.X.X.X.X.X.X.X.X.X.X.X.X.X.X.X.X.X.X.X.X.X.X.X.X.X.X",
".X.X.X.X.X.X.X.X.X.X.X.X.X.X.X.X.X.X.X.X.X.X.X.X.X.X.X.X.X.X.X.X.X.X.X.X.X.X.X.X.X.X.X.X.X.X.X.X.X.X",
".X.X.X.X.X.X.X.X.X.X.X.X.X.X.X.X.X.X.X.X.X.X.X.X.X.X.X.X.X.X.X.X.X.X.X.X.X.X.X.X.X.X.X.X.X.X.X.X.X.X",
".X.X.X.X.X.X.X.X.X.X.X.X.X.X.X.X.X.X.X.X.X.X.X.X.X.X.X.X.X.X.X.X.X.X.X.X.X.X.X.X.X.X.X.X.X.X.X.X.X.X",
".X.X.X.X.X.X.X.X.X.X.X.X.X.X.X.X.X.X.X.X.X.X.X.X.X.X.X.X.X.X.X.X.X.X.X.X.X.X.X.X.X.X.X.X.X.X.X.X.X.X",
".X.X.X.X.X.X.X.X.X.X.X.X.X.X.X.X.X.X.X.X.X.X.X.X.X.X.X.X.X.X.X.X.X.X.X.X.X.X.X.X.X.X.X.X.X.X.X.X.X.X",
".X.X.X.X.X.X.X.X.X.X.X.X.X.X.X.X.X.X.X.X.X.X.X.X.X.X.X.X.X.X.X.X.X.X.X.X.X.X.X.X.X.X.X.X.X.X.X.X.X.X",
"|..X.X.X.X.X.X.X.X.X.X.X.X.X.X.X.X.X.X.X.X.X.X.X.X.X.X.X.X.X.X.X.X.X.X.X.X.X.X.X.X.X.X.X.X.X.X.X.X.X"
};
