/* XPM */
static char *result[] = {
/* columns rows colors chars-per-pixel */
"50 50 200 2 ",
"   c #030304",
".  c #0A0401",
"X  c #06060B",
"o  c #080808",
"O  c #0B0C0C",
"+  c #150B02",
"@  c #161205",
"#  c #17120E",
"$  c #0A0711",
"%  c #070A17",
"&  c #0D0E11",
"*  c #100F10",
"=  c #0D1117",
"-  c #141415",
";  c #171719",
":  c #17191B",
">  c #1C1C1C",
",  c #361B06",
"<  c #3A1F06",
"1  c #2E1511",
"2  c #3C220A",
"3  c #120F2B",
"4  c #0E102A",
"5  c #171A22",
"6  c #1B1D22",
"7  c #16162A",
"8  c #181D2B",
"9  c #131631",
"0  c #1E1A36",
"q  c #211A36",
"w  c #1E2122",
"e  c #1C2028",
"r  c #17213B",
"t  c #18233E",
"y  c #232425",
"u  c #222629",
"i  c #25282B",
"p  c #2A2C2D",
"a  c #282D38",
"s  c #2E3235",
"d  c #2F3439",
"f  c #313234",
"g  c #3E3833",
"h  c #313539",
"j  c #34383A",
"k  c #3A3B3B",
"l  c #48100D",
"z  c #472203",
"x  c #44230A",
"c  c #773A14",
"v  c #452838",
"b  c #6E392C",
"n  c #4C4137",
"m  c #1C1747",
"M  c #2B1F56",
"N  c #1B2745",
"B  c #333957",
"V  c #1B2F60",
"C  c #1E3263",
"Z  c #2B3E65",
"A  c #273C6D",
"S  c #2B3F6B",
"D  c #3A366C",
"F  c #322B71",
"G  c #332B73",
"H  c #47396B",
"J  c #423977",
"K  c #3D4245",
"L  c #3F4549",
"P  c #3C486A",
"I  c #2D4270",
"U  c #434546",
"Y  c #474846",
"T  c #41464A",
"R  c #444A4D",
"E  c #4B4B4B",
"W  c #464D51",
"Q  c #4A4E51",
"!  c #494E5D",
"~  c #4A5155",
"^  c #4C535A",
"/  c #555453",
"(  c #5A5754",
")  c #51565A",
"_  c #535A5E",
"`  c #5A5B5A",
"'  c #4E4D6D",
"]  c #555D61",
"[  c #595E61",
"{  c #51546F",
"}  c #555979",
"|  c #596166",
" . c #5C646B",
".. c #5F686D",
"X. c #5C6474",
"o. c #5F6971",
"O. c #5C6279",
"+. c #626363",
"@. c #616A6F",
"#. c #686A6C",
"$. c #706969",
"%. c #626C71",
"&. c #656C7C",
"*. c #6A7379",
"=. c #6B757A",
"-. c #747474",
";. c #757579",
":. c #7B7B7B",
">. c #9F3016",
",. c #8F2527",
"<. c #953233",
"1. c #834414",
"2. c #934714",
"3. c #9C4B14",
"4. c #B84616",
"5. c #B86D1C",
"6. c #B0502B",
"7. c #CB631C",
"8. c #CB6C1E",
"9. c #D8691D",
"0. c #DB7A1D",
"q. c #E37B1F",
"w. c #DB6F22",
"e. c #D87220",
"r. c #A8605D",
"t. c #937E70",
"y. c #B06C6D",
"u. c #DF831F",
"i. c #D78B21",
"p. c #C99522",
"a. c #C49D21",
"s. c #DF9022",
"d. c #E19222",
"f. c #DAA923",
"g. c #E1AB24",
"h. c #E1AF29",
"j. c #E1B525",
"k. c #E2B83C",
"l. c #DB8742",
"z. c #CE957D",
"x. c #DAA87B",
"c. c #E2AB74",
"v. c #352B84",
"b. c #372D88",
"n. c #3F368F",
"m. c #3B2F95",
"M. c #3D3295",
"N. c #423B88",
"B. c #413793",
"V. c #474287",
"C. c #4D4B86",
"Z. c #49438B",
"A. c #475C84",
"S. c #737D82",
"D. c #768186",
"F. c #7C868C",
"G. c #7D888D",
"H. c #718296",
"J. c #848586",
"K. c #828D93",
"L. c #8A969C",
"P. c #959595",
"I. c #9A9B9B",
"U. c #BC8888",
"Y. c #8D9BA4",
"T. c #919FA6",
"R. c #99A7AD",
"E. c #95A5B1",
"W. c #9CABB2",
"Q. c #A3A3A3",
"!. c #A9A5A2",
"~. c #ABABAB",
"^. c #A0AFB6",
"/. c #A1B0B7",
"(. c #A4B3BB",
"). c #B4B4B4",
"_. c #BDBDBD",
"`. c #C39797",
"'. c #CDB19E",
"]. c #E3A983",
"[. c #C7A1A1",
"{. c #D8BBA7",
"}. c #D9BCA9",
"|. c #E6C695",
" X c #DAC2B3",
".X c #E5CAB9",
"XX c #A9B9C1",
"oX c #BFC0C0",
"OX c #C2C2C2",
"+X c #CDCDCD",
"@X c #DBCFCF",
"#X c #D3D3D3",
"$X c #DDD4D3",
"%X c #DCDCDC",
"&X c #E3D6C8",
"*X c #E6DDDA",
"=X c #DFE1E1",
"-X c #E6E6E6",
";X c #E7E9EA",
":X c #E9E9E9",
/* pixels */
"-X-X-X%X%X-X-X-X-X-X-X-X-X%X-X-X-X-X-X:X:X-X-X%X=X-X=X-X=X-X-X-X-X%X=X-X-X-X-X-X-X-X-X%X=X:X-X:X-X=X",
"#X%X%X+X#X%X%X%X%X%X%X#X%X+X#X%X%X%X_.+.| _.%X#X#X%X%X%X%X%X%X$X%X+X#X%X%X#X%X%X#X%X%X+X$X%X#X%X%X#X",
"-X:X:X%X-X:X-X-X:X:X:X:X-X%X-X:X;X#XJ.X % J.#X%X-X:X:X:X:X:X:X:X:X%X-X:X:X:X:X:X:X:X:X%X-X:X-X:X:X:X",
":X:X:X-X-X:X:X:X:X:X:X:X:X%X:X:X;X;.5 C C 5 :.%X=X-X-X-X:X:X:X:X:X=X-X:X:X:X:X:X:X:X:X%X:X:X:X:X:X:X",
"-X:X:X%X-X-X:X-X:X:X:X:X:X%X-X:X-.- u H.5   w k k k k k $.;X;X-X:X%X-X:X:X:X:X:X:X:X:X%X-X:X:X-X:X-X",
"-X:X:X%X-X-X-X:X:X:X:X:X-X%X%XP.K * s R.j u u w y i y u K P.%X:X:X=X=X:X-X-X-X:X-X-X:X%X-X:X:X:X-X:X",
":X:X:X%X-X:X:X:X:X:X:X:X:X*X+X> W h s W.=.@.*.*.%.%.%.%.Q w _.=X:X*X-X:X:X:X:X:X:X:X:X%X-X:X:X:X:X:X",
"-X:X-X-X-X:X:X:X:X:X:X:X:X=X+X> W h s R.=.o.G.L.%.%.@.@...) y ).:X=X-X:X:X:X:X:X:X:X:X=X-X:X:X:X:X:X",
"-X-X:X%X-X-X-X:X:X-X:X-X-X%X%XI.L & s R.D.G.G.D.@.@.o.@.@...L Q Q.%X-X:X-X-X:X:X-X-X:X%X-X;X:X-X-X-X",
"-X:X:X%X-X-X:X-X-X:X:X:X:X%X=X).L o s W.=.G.G.| @.%.o...%.@.@.: -.=X-X-X:X:X:X:X:X:X:X%X-X-X:X:X:X-X",
":X:X:X-X-X:X:X:X:X:X:X:X:X=X+Xy W h s E.=.o. .| ..............: -.-X-X:X:X:X:X:X:X:X:X%X-X:X:X:X:X:X",
"-X:X-X%X-X:X:X:X:X:X:X:X:X=X+X> W h e =.%.P A I I I I Z A I I = -.=X=X:X:X:X-X:X:X:X:X%X-X:X-X;X:X-X",
"%X#X%X#X%X%X%X%X%X%X%X%X%X#XoX> L s : |  .I N r r t r N t t r X $.#X#X%X%X%X%X%X%X%X%X+X%X%X%X%X#X%X",
"-X:X#X).XX XoXoX XoXoXoXoXoX+X> W h : @.%.P N 5 5 5 5 : : 5 5   -.=X:X:X+XoXoXoX XoXoX(.oXoX_.#X:X-X",
":X:XJ.o O & * O % & & & O Y +Xw W j w @.%.%.P V C C C t 8 C C % -.-X-X-XY o O * * & * O * * O :.:X:X",
"-X:.| *.=.=.=.=.*.*.*.*.=...Y o : * o p  .L X.H.H.B C N 8 A H.e i E Q / #.=.=.=.=.=.=.%.=.=.=.] :.:X",
"-X=._ S.S.D.R.XXW.K.(.L.G.[ 3 6 w w - O ] ] G.^.W. .I r e I E.s X > : 4 o.G.L.(.K.W.XXT.D.D.D.| -.-X",
";X;Xt.O - - S.^.F.i L.R : q n.X...%.L = ] L./.^.(.(.A.t 8 I Y.s j  .O.n.q ; W Y.p S.^.=.& = & :.:X:X",
";X;X#X_._._.E : - o p S.] q B.X.C.n.C.~ : ; @.(.(.XXA.N e C e L ' V.X.B.q | :.p O = : Y oXoX X#X:X:X",
"-X;X:X%X-X:XP.:.(   - G.%.0 B.X.Z.m.Z. .M a T ~ ) ~ a = = 9 d ] C.N.X.B.0 %.G.-   / -.P.-X;X;X:X-X-X",
"-X;X:X%X-X:X:X:X_.f - @.) 7 G ! S G J &.Z.{ p     O o     O W ) D D ! G 7 ) %.; p ).:X-X:X:X:X:X:X:X",
";X:X;X-X-X:X:X:X:X+Xy O O     X X X p K.&.d ; - w _ s - ; - O o X   X X   o O > OX:X:X%X:X:X:X:X:X:X",
"-X:X:X%X-X;X-X-X;X-X).!.~.-.o T W W K h D.| ^ ~ Q s R _ K : P.~.~.Q.~.~.~.~.~.~.-X:X:X%X:X:X:X-X:X:X",
"#X%X%X+X#X%X%X%X%X%X%X%X%X).E U ] X.L = S.*.+.] K > j _ L > OX=X%X#X%X*X%X%X*X%X%X#X%X+X#X%X%X%X%X#X",
":X:X-X%X-X-X-X-X:X-X-X:X-X%X+X> L %.R - G.=. .R w w w K L ; +X:X-X%X-X-X-X-X-X:X:X-X-X%X-X:X-X-X-X-X",
":X:X;X*X-X-X:X:X:X:X:X:X:X*X+X> R *.R * G.=.L p | | | K - ; #X:X:X%X-X;X:X;X:X:X:X:X:X%X-X:X:X:X:X:X",
"-X-X:X%X-X:X;X-X-X:X-X:X;X%X+Xw W *.W O K K K Q ..@.%.] h O / / Q.-X-X:X:X-X-X:X:X-X-X%X-X:X-X:X-X-X",
"-X:X:X%X-X:X:X-X:X:X:X:X;X%X+X> h W j . # # g / / / ( ( n + . * ` ).-X:X:X:X:X:X:X:X:X%X-X-X:X:X:X-X",
":X:X:X%X-X:X:X:X:X:X:X:X;X*XOX6         , , < 2 2 2 x x 2 x 2 / j k %X:X:X:X:X:X:X:X:X%X-X:X:X:X:X:X",
"-X:X-X-X-X-X:X-X:X:X:X:X:X~.a 3 4 %     < z b ) ` ` ` ` ! J _ @.| T U #X:X:X:X:X:X:X:X%X-X:X:X:X:X-X",
"-X:X-X%X-X:X-X-X:X-X;X;X:XQ.o b b 2     x v H } o.%.%.} Z.B.C.X.%.R > +X:X:X:X:X-X-X:X%X-X-X-X-X-X-X",
"-X:X:X%X-X:X:X:X:X;X;X:X:X!.< 8.q.1.+ . x H M.N.} ] ] H v.m.m.} O.T w +X:X:X:X:X:X:X:X%X-X:X:X:X:X:X",
":X:X:X-X-X:X:X:X:X:X:X:X:X}.e.f.j.i.2.. x ( C.m.v.= .   3 m.m.M.B.F ; #X:X:X:X:X:X:X:X%X:X:X:X:X:X:X",
"-X:X-X%X-X:X-X-X:X:X:X-X;X}.e.g.j.s.3.O n  .O.P 0 c t.I.-.m m.m.V.' L / OX:X:X:X:X:X:X%X-X:X:X:X:X:X",
"%X%X%X+X#X%X%X%X%X%X%X%X%X'.8.f.f.i.2.O '  ...L + 5.x.&XQ.O D N.} _ K O #._.*X=X-X%X%X+X%X%X%X%X%X#X",
"-X-X:X%X-X-X-X-X:X:X-X-X;X{.w.f.j.s.3.$ b.} %.R @ a.0.].~.* _  . .W ; -   :.:X:X:X-X-X%X-X-X-X-X-X-X",
"-X:X:X%X-X:X:X:X:X:X;X;X;X}.e.g.j.d.3.O b.} %.T @ a.u.c.~.  O y y w ; ;   ;.:X:X:X:X:X%X-X-X:X:X:X:X",
"-X-X-X%X-X:X:X-X-X:X:X:X;X{.e.f.j.i.3.X v.Z.C.Z @ a.c..X+X:.;.y   o o o ( ).:X:X-X-X:X%X-X-X-X-X-X-X",
"-X:X:X%X-X-X:X:X:X:X:X;X:X Xl.h.f.i.>.6 N.B.v.M 2 p.|.*X;X:X:X+.p i p f _.:X:X:X:X:X:X%X-X:X:X:X:X-X",
":X:X:X-X-X:X:X:X:X:X:X:X:X-X&Xk.i.c 5  .%.N.m , 7.9.e.].:X:X:X-X*X#X%X%X-X:X:X:X:X:X:X%X:X:X:X:X:X:X",
"-X:X:X=X-X-X:X-X:X:X:X:X-X%X$X6.>.l & h  .&.a 1 >.9.9.x.;X:X-X:X:X%X-X:X:X-X;X:X:X:X:X%X-X:X-X:X:X-X",
"-X-X:X%X-X:X:X-X:X:X:X:X-X*X%Xy.,.l X > B R u 1 r.4.4.z.;X-X:X:X-X%X-X:X-X:X:X:X-X:X:X%X-X:X-X-X-X-X",
":X:X:X%X-X:X:X:X:X:X;X:X:X%X;X;Xr.l . ; # ; . k $X<.,.U.:X:X:X:X:X%X-X:X:X:X:X:X:X:X:X%X:X:X:X:X:X:X",
":X:X:X%X-X:X:X:X:X:X:X:X:X%X-X;X*X$.  ; ; ; . k @X<.`.-X:X:X:X:X:X%X-X:X:X:X:X:X:X:X:X%X:X:X:X:X:X:X",
"-X:X-X%X-X-X:X:X:X:X:X-X:X%X-X;X:X-.  : ; ;   k %X[.@X-X-X:X:X:X:X%X-X:X-X-X-X;X:X:X:X%X-X:X-X-X-X-X",
"%X%X%X#X%X%X%X%X%X%X%X%X%X#X%X%X=XJ.y * * * 6 ` %X=X%X%X%X%X%X%X%X#X%X%X%X%X%X*X%X%X%X+X%X%X%X%X%X%X",
"-X-X-X%X%X-X-X-X-X-X-X-X-X%X-X-X-X-XQ.o O . :.%X=X-X-X-X-X-X-X-X-X%X-X-X-X-X-X-X-X-X-X%X=X-X-X-X-X-X",
"-X;X;X*X-X:X-X:X:X:X:X:X-X%X-X-X;X;X*X_._._.#X=X-X:X:X-X:X:X:X:X-X%X-X:X:X:X-X:X:X:X:X%X-X:X:X:X:X-X",
"-X-X-X%X-X-X-X:X-X-X:X-X-X%X-X-X:X-X:X:X:X:X:X%X-X:X-X-X-X:X:X-X-X%X-X-X-X-X-X:X-X-X:X%X-X-X-X-X-X-X",
":X;X:X%X-X:X:X:X:X:X:X:X:X%X-X:X:X:X-X:X:X:X:X%X-X:X:X:X:X:X:X-X:X%X-X:X:X:X:X:X:X:X:X%X-X:X:X:X:X:X"
};
