/* XPM */
static char *result[] = {
/* columns rows colors chars-per-pixel */
"50 50 204 2 ",
"   c gray17",
".  c #2F3232",
"X  c #2D383B",
"o  c #333434",
"O  c #373939",
"+  c #3A3B3C",
"@  c #56382D",
"#  c #513B33",
"$  c #643727",
"%  c #4F463B",
"&  c #79402C",
"*  c #694234",
"=  c #2D3C40",
"-  c #323D41",
";  c #2E454D",
":  c #3F4040",
">  c #274956",
",  c #2B4B57",
"<  c #254D5D",
"1  c #2B4F5C",
"2  c #384D56",
"3  c #32535F",
"4  c #39525B",
"5  c #255365",
"6  c #2A5362",
"7  c #24566A",
"8  c #24596D",
"9  c #2C5B6D",
"0  c #3A5762",
"q  c #345964",
"w  c #3B5B66",
"e  c #355E6F",
"r  c #3A5F69",
"t  c #245D73",
"y  c #2A5E73",
"u  c #1B617D",
"i  c #38616D",
"p  c #2F6377",
"a  c #24637D",
"s  c #2B657C",
"d  c #326274",
"f  c #3C6673",
"g  c #3D6976",
"h  c #336679",
"j  c #38697A",
"k  c #3C6D7C",
"l  c #434444",
"z  c #444A4C",
"x  c #4A4B4B",
"c  c #524946",
"v  c #454F53",
"b  c #455155",
"n  c #4E5152",
"m  c #48565A",
"M  c #4B595E",
"N  c #535454",
"B  c #5A5B50",
"V  c #555859",
"C  c #5C5C5C",
"Z  c #67544D",
"A  c #755042",
"S  c #675D5A",
"D  c #6A6D4B",
"F  c #707257",
"G  c #445B64",
"H  c #4B5C62",
"J  c #555E61",
"K  c #5E5F60",
"L  c #43616C",
"P  c #4B646C",
"I  c #59656A",
"U  c #5D696E",
"Y  c #466773",
"T  c #4D6C76",
"R  c #426E7A",
"E  c #4A6F7A",
"W  c #5A6D73",
"Q  c #41717E",
"!  c #4F717D",
"~  c #646464",
"^  c #696564",
"/  c #6C6D64",
"(  c #666768",
")  c #65696B",
"_  c #6B6C6C",
"`  c #7A6862",
"'  c #6F7064",
"]  c #787A67",
"[  c #626D71",
"{  c #6C6F70",
"}  c #637377",
"|  c #6D7172",
" . c #67757A",
".. c #737474",
"X. c #737779",
"o. c #7B7C7C",
"O. c #807F7F",
"+. c #83817F",
"@. c #1F7496",
"#. c #236681",
"$. c #246A85",
"%. c #2B6B84",
"&. c #246E8B",
"*. c #3A6E83",
"=. c #24708F",
"-. c #2C738E",
";. c #3C7385",
":. c #34748A",
">. c #397689",
",. c #237393",
"<. c #2A7592",
"1. c #217699",
"2. c #227A9D",
"3. c #2D7B98",
"4. c #3D7E92",
"5. c #357E98",
"6. c #1F7EA4",
"7. c #217DA2",
"8. c #417482",
"9. c #427887",
"0. c #447C8B",
"q. c #5E7B83",
"w. c #457F90",
"e. c #3C8196",
"r. c #1F80A7",
"t. c #1F82AA",
"y. c #2381A6",
"u. c #2284AB",
"i. c #2B86A9",
"p. c #2A88AC",
"a. c #3589A6",
"s. c #3A8AA6",
"d. c #3690AF",
"f. c #2A8DB2",
"g. c #3596B9",
"h. c #3C9BBA",
"j. c #468293",
"k. c #488697",
"l. c #47899A",
"z. c #4A8C9E",
"x. c #58899D",
"c. c #7D8486",
"v. c #448DA3",
"b. c #4A8EA1",
"n. c #4C92A5",
"m. c #4D96AA",
"M. c #4E99AE",
"N. c #5394A6",
"B. c #459BB6",
"V. c #4D9DB3",
"C. c #449DB9",
"Z. c #589EB4",
"A. c #4FA6BF",
"S. c #50A0B6",
"D. c #52A5BC",
"F. c #54A8BF",
"G. c #79A1B2",
"H. c #42A2C2",
"J. c #4BA9C5",
"K. c #4EA8C4",
"L. c #54ABC3",
"P. c #55AFC8",
"I. c #55B2CC",
"U. c #58B3CC",
"Y. c #58B6D0",
"T. c #59B9D3",
"R. c #838484",
"E. c #898685",
"W. c #868889",
"Q. c #8B8C8C",
"!. c #8A8E91",
"~. c #908F90",
"^. c #949494",
"/. c #979798",
"(. c #979898",
"). c #9B9B9B",
"_. c #A49C99",
"`. c #9F9FA0",
"'. c #8DA2AB",
"]. c #9FA0A0",
"[. c #80A9B6",
"{. c #92A9B3",
"}. c #A4A3A4",
"|. c #A4A7A8",
" X c #ACACAC",
".X c #AAB6BB",
"XX c #B4B4B4",
"oX c #B8B7B8",
"OX c #BCBCBC",
"+X c #C2BEBD",
"@X c #BFC1C2",
"#X c #C5C4C5",
"$X c #C7C7C8",
"%X c #CBCBCB",
"&X c #D0CFD0",
"*X c #CFD0D0",
"=X c #D4D4D4",
"-X c #DADADA",
";X c #E3E3E3",
":X c #E9E7E6",
">X c #ECECEC",
",X c #F5F5F5",
"<X c #F8F8F7",
"1X c #F8F8F8",
/* pixels */
",X,X,X,X,X,X,X,X,X,X,X,X,X,X,X,X,X,X,X,X,X,X,X,X,X,X,X,X,X,X,X,X,X<X,X,X,X,X,X,X,X,X,X,X,X<X Xo.>X,X",
",X,X,X,X,X,X,X,X,X,X,X,X,X,X,X,X,X,X,X,X,X,X,X,X,X,X,X,X,X,X,X,X,X,X,X,X,X,X,X,X,X,X,X1X;X~.+ c.,X,X",
",X,X,X,X,X,X,X,X,X,X,X,X,X,X,X,X,X,X,X,X,X,X,X,X,X,X,X,X,X,X,X,X,X,X,X,X,X,X,X,X,X,X,X#XC X 0.[.;X,X",
",X,X,X,X,X,X,X,X,X,X,X,X,X,X,X,X,X,X,X,X,X@X>X<X,X,X,X,X,X,X,X,X,X,X,X,X<X,X,X,X1X:X).l ; m.Y.Z.-X,X",
",X,X,X,X,X,X,X,X,X,X,X,X,X,X,X,X,X,X,X,X,X^.;X,X,X,X,X,X,X,X,X,X,X,X,X,X,X,X,X,X%X..l , s.Y.J.s.$X1X",
",X,X,X,X,X,X,X,X,X,X,X,X,X,X,X,X,X,X,X,X,XXX%X1X,X,X,X,X,X,X,X,X,X,X,X,X,X1X:X`.K n h #.H.T.B.y |.,X",
",X,X,X,X,X,X,X,X,X,X,X,X,X,X,X,X,X,X,X,X<X$XXX1X1X,X,X,X,X,X,X,X,X,X,X<X1X%Xo.B M w.f.&.L.S.d a {.>X",
",X,X,X,X,X,X,X,X,X,X,X,X,X,X,X,X,X,X,X,X,X;X). X(.%X,X,X,X,X,X,X,X,X<X>X|.K V E M.v.p.,.w.f ,.t.G.:X",
",X,X,X,X,X,X,X,X,X,X,X,X,X,X,X,X,X,X,X,X<X*Xn o o : @X<X,X,X,X,X<X<X=Xo.N P Q S.Y.4.7.8 R C.u.6.x.=X",
",X,X,X,X,X,X,X,X>X,X,X,X,X,X,X,X,X,X,X,X>XO.N l : o K :X,X,X,X,X>X XK b 4 M.D.M.T.>.5 j n.H.t.#.L @X",
"1X,X,X,X,X,X,X>X,X,X,X,X,X,X,X,X,X,X,X<XoX..( x l + O OX<X,X<X;XW.N 2 %.<.D.P.z.b.1 &.K.z.d.y t a..X",
",X,X,X,X,X,X>X>X,X,X,X,X,X,X,X,X,X,X,X,XW.R.~ N l .   |.<X<X$X_ z 9 s y.a.M.F.i k $.3.I.0.9 #.u.i.'.",
",X,X,X,X,X,X,X,X,X,X,X,X,X,X,X,X,X,X,X;X{ Q.~ x + _ Q.|.,X Xn ; a y.%.y.B.R g k C.@.5.m.q &.u.7.%.X.",
",X,X,X,X,X>X>X,X,X,X,X,X,X,X,X,X,X,X,X*X( Q.V N W.o...O.-XC 9 1.%.u.,.$.f f L.m.a.6.q 0.e.,.7.d V N ",
",X,X1X,X,X,X>X,X,X,X,X,X,X,X,X,X,X,X,X#XK _ ( +.o.D % / =X..:.t.$.2.a 6 M.z.I.S.s 7 f L.s.y w V ~ XX",
",X,X,X,X,X>X,X,X,X,X,X,X,X,X,X,X,X,X,X$Xx { }.] ] ] X.c.=XE.*.u.s 6 7 4.T.m.M.9.> 3.n.B.:.N V R.-X1X",
",X,X,X,X,X,X,X,X,X,X,X,X,X,X,X,X,X,X,X*X{ }.' / Q.+.c % +X}.P #.< #.6.4.U.k.w >.a g.b.P ~ C `.>X,X,X",
",X,X,X,X,X,X,X,X,X,X,X,X,X,X<X,X,X,X,X:X~.+.F O.Z $ @ # _.+XV a &.&.u.e.Q g k.h.#.>.W I _ $X,X,X,X,X",
",X,X,X,X,X,X<X,X,X,X,X,X,X,X,X,X,X,X,X,XO.B ' * & Z (.W.Q.%XU 1.t.$.-.w j.I.l.i.e ) ~ Q.;X,X<X,X,X,X",
",X,X,X,X,X,X,X,X,X,X,X,X,X,X,X,X,X1X>X:X(._ A & +.oX+X(.o.^._ -.@.< j b.m.T.0.T | ^ XX>X,X,X,X,X,X,X",
",X,X,X,X,X,X,X,X,X,X,X,X,X,X,X<X,X%X..].oXZ & +.%X#XXX/._ I o.e 8 7 B.L.l.N. ._ O.=X<X,X,X,X,X,X,X,X",
",X,X,X,X,X,X<X,X,X,X,X,X,X<X,X;X(.x v !.@X* ` $X%X$X X/.o.C ..4 1.,.V.L.T | ( }.>X<X,X<X,X,X,X,X,X1X",
",X,X,X,X,X,X,X,X,X,X,X,X<X<X#X_ z 9 j o.*X^ }.=X#X$X}./.R.W.$XP 6.1.9.q.( ..$X,X,X,X,X,X,X,X,X,X,X,X",
",X,X,X,X,X,X,X,X,X,X,X<X:X/.V 2 7 r.1.{ *XQ.oX*X+X%X).X.J o.-XI @.:.) ~ ~.:X,X,X,X,X,X,X,X,X,X,X,X,X",
",X,X,X,X,X,X,X,X,X,X1X%X..x 3 1.#.6.7.I OX`.XX&X#X#X .%.p _ =XX.P ) ^ oX,X,X,X,X,X,X,X,X,X,X,X,X,X,X",
",X,X,X,X,X,X,X,X1X>X XV z y $.u.=.=.#.H O.( XX$X}./.*.@.G ..#X/.( c.=X1X,X,X,X,X,X,X,X,X,X,X,X,X,X,X",
",X,X,X,X,X,X,X<X-XR.V b a u.$.7.@.< t *._ K `.!.9 [ P J ^.q. X@XXX,X,X,X,X,X,X,X,X,X,X,X,X,X,X,X,X,X",
",X,X,X,X,X,X,XOX_ C T m.5.u.&.#.5 7 7.-...o.U $.u I E.^._.E./.<X1X,X,X,X,X,X,X,X,X,X,X,X,X,X,X,X,X,X",
",X,X,X,X<X:X^.V J R m.U.b.h.y < @.#.6.@.( %X[ 7 U ~./././.E.Q.,X,X,X,X,X,X,X,X,X,X,X,X,X,X,X,X,X,X,X",
",X,X,X1X$X_ z m m.L.m.Y.k.R ;.=.6.=.#.7 H %XR.W. X/./.E.S : ~ >X,X,X,X,X,X,X,X,X,X,X,X,X,X,X,X,X,X,X",
",X,X>X`.l - *.b.D.U.b.m.r b.U.w.i.t < 1.e OX|.OX X^._ : O O _ ,X,X,X,X,X,X,X,X,X,X,X,X,X,X,X,X,X,X,X",
",X=X_ . > y u.a.m.P.g R m.m.T.w.h h &.6.y /.OX}.~.n o l n l XX,X,X,X,X,X,X,X,X,X,X,X,X,X,X,X,X,X,X,X",
"XXz = 8.g.$.7.6.j ;.R V.I.z.z.0 z.I.:.y.h o.%XO.x O n V l /.,X,X,X,X,X,X,X,X,X,X,X,X,X,X,X,X,X,X,X,X",
"o.G V.b.Y.v.,.a > 5.B.m.L.w 8.m.M.T.0.! ..W.-XV O n x C }.1X1X,X,X,X,X,X,X,X,X,X,X,X,X,X,X,X,X,X,X,X",
"/.E P.b.P.z.3 %.#.7.i.;.Q g L.L.k.N. .~ R.-X>X_ O : C ..XXXX X$X,X,X,X>X,X,X,X,X,X,X,X,X,X,X,X,X>X,X",
"XXG p.e.R R 0.L.3.&.$.> v.M.S.S.T _ ~ |.:X,X<X@X_ ^.-XE.{ o.{ S R.-X,X,X,X,X,X,X,X,X,X1X,X,X,X,X>X,X",
"$XJ y > ;.I.z.U.n.6 t u y.s.R } ^ o.=X,X,X>X,X<X,X,X XQ.XXoX X/...E.>X,X,X,X,X,X,X,X,X,X,X,X,X>X>X,X",
":X_ 5 ,.&.H.z.0.Y k g.=.a L ( ^ |.>X<X,X>X,X,X,X<X%XQ.XXXXXXXX`./...XX,X,X,X,X,X,X,X,X,X,X,X,X>X,X,X",
",XO.d t.#.&.q R F.z.A.j C ( o.*X,X,X,X>X,X,X,X,X>X(.@XoXXXXXXX|.^.o...>X,X,X,X,X,X,X,X,X,X,X,X>X,X,X",
",X`.w @.< 5 a 5.I.j.P ) ~ ).>X<X,X,X,X>X,X,X,X,X%X}.=XoXXXoXXXQ.C O C :X,X,X,X,X,X,X,X,X,X,X>X,X,X,X",
"1XoXb < 6 ,.y.a s I K ..%X1X,X,X,X,X,X>X,X,X,X,X}.OX=XoXoX|.( + # - `.,X,X,X,X,X,X,X,X,X,X>X,X,X,X,X",
"<X-XV &.1.=.,.4 C K ).:X,X,X,X,X,X,X,X,X,X,X,X>X^.$X=XOX~.l O x v o.>X,X,X,X,X,X,X,X,X,X,X,X,X,X,X,X",
",X>X_ %.1.6 M V | $X,X,X,X,X,X,X,X,X,X,X,X,X,X;X^.$X&XO.l V n x ) -X,X,X,X,X,X,X,X,X,X,X,X,X,X,X,X,X",
"<X,XW.3 0 N B ).:X,X,X,X,X<X,X,X,X,X,X,X,X,X,X=X/.+Xo.+ x ^ l ..-X<X,X,X,X,X,X,X,X,X,X1X,X,X,X,X,X<X",
",X<X|.C N | %X,X,X,X,X,X,X,X,X,X,X,X,X,X,X,X,X-X^...# z z C ^.:X1X,X,X,X,X,X,X,X,X,X,X,X,X,X,X,X,X,X",
",X,X$XC ].>X,X,X,X,X,X,X,X,X,X,X,X,X,X,X,X,X,X-X_ - z l S { XX,X,X,X,X,X,X,X,X,X,X,X,X,X,X,X,X,X,X,X",
"<X,X>X;X1X,X,X,X,X,X,X,X,X,X,X,X,X,X,X,X,X,X,X;XN + z ~.-XQ.R.=X,X,X1X,X,X,X,X,X,X,X,X,X,X,X,X,X,X,X",
",X,X,X,X,X,X,X,X,X,X,X,X,X,X,X,X,X,X,X,X1X,X,X,X).Q.&X<X-X^. X@X1X,X,X,X,X,X,X,X,X,X,X,X,X,X,X,X,X,X",
",X,X,X,X,X,X,X,X,X,X,X,X,X,X,X,X,X,X,X,X,X,X,X,X,X,X,X,X;X).|.%X1X,X,X,X,X,X,X,X,X,X,X,X,X,X,X,X,X,X",
",X,X,X,X,X,X,X,X,X,X,X,X,X,X,X,X,X,X,X,X,X,X,X,X,X,X,X,X,XQ.o.>X,X,X,X,X,X,X,X,X,X,X,X,X,X,X,X,X,X,X"
};
